<?xml version="1.0" standalone="no"?>
<!DOCTYPE svg PUBLIC "-//W3C//DTD SVG 20010904//EN"
 "http://www.w3.org/TR/2001/REC-SVG-20010904/DTD/svg10.dtd">
<svg version="1.0" xmlns="http://www.w3.org/2000/svg"
 width="96.000000pt" height="96.000000pt" viewBox="0 0 96.000000 96.000000"
 preserveAspectRatio="xMidYMid meet">
<metadata>
Created by potrace 1.14, written by Peter Selinger 2001-2017
</metadata>
<g transform="translate(0.000000,96.000000) scale(0.100000,-0.100000)"
fill="#000000" stroke="none">
<path d="M54 779 c-12 -14 -15 -40 -14 -131 3 -193 2 -239 -6 -312 -11 -105
-8 -126 15 -150 21 -20 29 -21 334 -23 171 -1 348 -2 392 -3 117 -3 115 -4
131 36 22 53 26 563 5 588 -13 16 -47 17 -428 15 -378 -2 -414 -4 -429 -20z"/>
</g>
</svg>
